<?xml version="1.0" encoding="utf-8" standalone="no"?>
<!DOCTYPE svg PUBLIC "-//W3C//DTD SVG 1.1//EN"
  "http://www.w3.org/Graphics/SVG/1.1/DTD/svg11.dtd">
<!-- Created with matplotlib (https://matplotlib.org/) -->
<svg height="432pt" version="1.1" viewBox="0 0 576 432" width="576pt" xmlns="http://www.w3.org/2000/svg" xmlns:xlink="http://www.w3.org/1999/xlink">
 <defs>
  <style type="text/css">
*{stroke-linecap:butt;stroke-linejoin:round;}
  </style>
 </defs>
 <g id="figure_1">
  <g id="patch_1">
   <path d="M 0 432 
L 576 432 
L 576 0 
L 0 0 
z
" style="fill:#ffffff;"/>
  </g>
  <g id="axes_1">
   <g id="patch_2">
    <path d="M 72 378 
L 518.4 378 
L 518.4 51.84 
L 72 51.84 
z
" style="fill:#ffffff;"/>
   </g>
   <g id="PathCollection_1">
    <defs>
     <path d="M 22.36068 0 
L -22.36068 -0 
" id="ma4bba62c7f" style="stroke:#1f77b4;stroke-width:1.5;"/>
    </defs>
    <g clip-path="url(#p1a2499fc71)">
     <use style="fill:#1f77b4;stroke:#1f77b4;stroke-width:1.5;" x="106.927261" xlink:href="#ma4bba62c7f" y="96.026578"/>
     <use style="fill:#1f77b4;stroke:#1f77b4;stroke-width:1.5;" x="106.927261" xlink:href="#ma4bba62c7f" y="96.017024"/>
     <use style="fill:#1f77b4;stroke:#1f77b4;stroke-width:1.5;" x="106.927261" xlink:href="#ma4bba62c7f" y="96.00747"/>
    </g>
   </g>
   <g id="PathCollection_2">
    <defs>
     <path d="M 22.36068 0 
L -22.36068 -0 
" id="mb27b877c35" style="stroke:#ff7f0e;stroke-width:1.5;"/>
    </defs>
    <g clip-path="url(#p1a2499fc71)">
     <use style="fill:#ff7f0e;stroke:#ff7f0e;stroke-width:1.5;" x="106.927261" xlink:href="#mb27b877c35" y="181.380715"/>
     <use style="fill:#ff7f0e;stroke:#ff7f0e;stroke-width:1.5;" x="106.927261" xlink:href="#mb27b877c35" y="181.371162"/>
     <use style="fill:#ff7f0e;stroke:#ff7f0e;stroke-width:1.5;" x="106.927261" xlink:href="#mb27b877c35" y="181.361608"/>
     <use style="fill:#ff7f0e;stroke:#ff7f0e;stroke-width:1.5;" x="232.44242" xlink:href="#mb27b877c35" y="120.293369"/>
     <use style="fill:#ff7f0e;stroke:#ff7f0e;stroke-width:1.5;" x="232.44242" xlink:href="#mb27b877c35" y="120.283815"/>
     <use style="fill:#ff7f0e;stroke:#ff7f0e;stroke-width:1.5;" x="232.44242" xlink:href="#mb27b877c35" y="120.274261"/>
    </g>
   </g>
   <g id="PathCollection_3">
    <defs>
     <path d="M 22.36068 0 
L -22.36068 -0 
" id="m66aff5bc66" style="stroke:#2ca02c;stroke-width:1.5;"/>
    </defs>
    <g clip-path="url(#p1a2499fc71)">
     <use style="fill:#2ca02c;stroke:#2ca02c;stroke-width:1.5;" x="106.927261" xlink:href="#m66aff5bc66" y="271.93215"/>
     <use style="fill:#2ca02c;stroke:#2ca02c;stroke-width:1.5;" x="106.927261" xlink:href="#m66aff5bc66" y="271.922596"/>
     <use style="fill:#2ca02c;stroke:#2ca02c;stroke-width:1.5;" x="106.927261" xlink:href="#m66aff5bc66" y="271.913042"/>
     <use style="fill:#2ca02c;stroke:#2ca02c;stroke-width:1.5;" x="106.927261" xlink:href="#m66aff5bc66" y="90.896158"/>
     <use style="fill:#2ca02c;stroke:#2ca02c;stroke-width:1.5;" x="106.927261" xlink:href="#m66aff5bc66" y="90.886604"/>
     <use style="fill:#2ca02c;stroke:#2ca02c;stroke-width:1.5;" x="106.927261" xlink:href="#m66aff5bc66" y="90.87705"/>
     <use style="fill:#2ca02c;stroke:#2ca02c;stroke-width:1.5;" x="232.44242" xlink:href="#m66aff5bc66" y="204.233536"/>
     <use style="fill:#2ca02c;stroke:#2ca02c;stroke-width:1.5;" x="232.44242" xlink:href="#m66aff5bc66" y="204.223982"/>
     <use style="fill:#2ca02c;stroke:#2ca02c;stroke-width:1.5;" x="232.44242" xlink:href="#m66aff5bc66" y="204.214428"/>
     <use style="fill:#2ca02c;stroke:#2ca02c;stroke-width:1.5;" x="232.44242" xlink:href="#m66aff5bc66" y="204.204874"/>
     <use style="fill:#2ca02c;stroke:#2ca02c;stroke-width:1.5;" x="357.95758" xlink:href="#m66aff5bc66" y="121.888862"/>
     <use style="fill:#2ca02c;stroke:#2ca02c;stroke-width:1.5;" x="357.95758" xlink:href="#m66aff5bc66" y="121.879309"/>
     <use style="fill:#2ca02c;stroke:#2ca02c;stroke-width:1.5;" x="357.95758" xlink:href="#m66aff5bc66" y="121.869755"/>
     <use style="fill:#2ca02c;stroke:#2ca02c;stroke-width:1.5;" x="357.95758" xlink:href="#m66aff5bc66" y="121.860201"/>
    </g>
   </g>
   <g id="PathCollection_4">
    <defs>
     <path d="M 22.36068 0 
L -22.36068 -0 
" id="m0cf0055988" style="stroke:#d62728;stroke-width:1.5;"/>
    </defs>
    <g clip-path="url(#p1a2499fc71)">
     <use style="fill:#d62728;stroke:#d62728;stroke-width:1.5;" x="106.927261" xlink:href="#m0cf0055988" y="364.327479"/>
     <use style="fill:#d62728;stroke:#d62728;stroke-width:1.5;" x="106.927261" xlink:href="#m0cf0055988" y="364.317925"/>
     <use style="fill:#d62728;stroke:#d62728;stroke-width:1.5;" x="106.927261" xlink:href="#m0cf0055988" y="166.457594"/>
     <use style="fill:#d62728;stroke:#d62728;stroke-width:1.5;" x="106.927261" xlink:href="#m0cf0055988" y="166.448041"/>
     <use style="fill:#d62728;stroke:#d62728;stroke-width:1.5;" x="106.927261" xlink:href="#m0cf0055988" y="166.438487"/>
     <use style="fill:#d62728;stroke:#d62728;stroke-width:1.5;" x="106.927261" xlink:href="#m0cf0055988" y="166.428933"/>
     <use style="fill:#d62728;stroke:#d62728;stroke-width:1.5;" x="232.44242" xlink:href="#m0cf0055988" y="292.740446"/>
     <use style="fill:#d62728;stroke:#d62728;stroke-width:1.5;" x="232.44242" xlink:href="#m0cf0055988" y="292.730892"/>
     <use style="fill:#d62728;stroke:#d62728;stroke-width:1.5;" x="232.44242" xlink:href="#m0cf0055988" y="292.721338"/>
     <use style="fill:#d62728;stroke:#d62728;stroke-width:1.5;" x="232.44242" xlink:href="#m0cf0055988" y="292.711784"/>
     <use style="fill:#d62728;stroke:#d62728;stroke-width:1.5;" x="357.95758" xlink:href="#m0cf0055988" y="204.290859"/>
     <use style="fill:#d62728;stroke:#d62728;stroke-width:1.5;" x="357.95758" xlink:href="#m0cf0055988" y="204.281305"/>
     <use style="fill:#d62728;stroke:#d62728;stroke-width:1.5;" x="357.95758" xlink:href="#m0cf0055988" y="204.271751"/>
     <use style="fill:#d62728;stroke:#d62728;stroke-width:1.5;" x="357.95758" xlink:href="#m0cf0055988" y="204.262197"/>
     <use style="fill:#d62728;stroke:#d62728;stroke-width:1.5;" x="357.95758" xlink:href="#m0cf0055988" y="204.252644"/>
     <use style="fill:#d62728;stroke:#d62728;stroke-width:1.5;" x="483.472739" xlink:href="#m0cf0055988" y="101.749337"/>
     <use style="fill:#d62728;stroke:#d62728;stroke-width:1.5;" x="483.472739" xlink:href="#m0cf0055988" y="101.739783"/>
     <use style="fill:#d62728;stroke:#d62728;stroke-width:1.5;" x="483.472739" xlink:href="#m0cf0055988" y="101.730229"/>
     <use style="fill:#d62728;stroke:#d62728;stroke-width:1.5;" x="483.472739" xlink:href="#m0cf0055988" y="101.720675"/>
    </g>
   </g>
   <g id="matplotlib.axis_1">
    <g id="xtick_1">
     <g id="line2d_1">
      <defs>
       <path d="M 0 0 
L 0 3.5 
" id="m633506deef" style="stroke:#000000;stroke-width:0.8;"/>
      </defs>
      <g>
       <use style="stroke:#000000;stroke-width:0.8;" x="106.927261" xlink:href="#m633506deef" y="378"/>
      </g>
     </g>
     <g id="text_1">
      <!-- 0 -->
      <defs>
       <path d="M 31.78125 66.40625 
Q 24.171875 66.40625 20.328125 58.90625 
Q 16.5 51.421875 16.5 36.375 
Q 16.5 21.390625 20.328125 13.890625 
Q 24.171875 6.390625 31.78125 6.390625 
Q 39.453125 6.390625 43.28125 13.890625 
Q 47.125 21.390625 47.125 36.375 
Q 47.125 51.421875 43.28125 58.90625 
Q 39.453125 66.40625 31.78125 66.40625 
z
M 31.78125 74.21875 
Q 44.046875 74.21875 50.515625 64.515625 
Q 56.984375 54.828125 56.984375 36.375 
Q 56.984375 17.96875 50.515625 8.265625 
Q 44.046875 -1.421875 31.78125 -1.421875 
Q 19.53125 -1.421875 13.0625 8.265625 
Q 6.59375 17.96875 6.59375 36.375 
Q 6.59375 54.828125 13.0625 64.515625 
Q 19.53125 74.21875 31.78125 74.21875 
z
" id="DejaVuSans-48"/>
      </defs>
      <g transform="translate(103.746011 392.598437)scale(0.1 -0.1)">
       <use xlink:href="#DejaVuSans-48"/>
      </g>
     </g>
    </g>
    <g id="xtick_2">
     <g id="line2d_2">
      <g>
       <use style="stroke:#000000;stroke-width:0.8;" x="232.44242" xlink:href="#m633506deef" y="378"/>
      </g>
     </g>
     <g id="text_2">
      <!-- 1 -->
      <defs>
       <path d="M 12.40625 8.296875 
L 28.515625 8.296875 
L 28.515625 63.921875 
L 10.984375 60.40625 
L 10.984375 69.390625 
L 28.421875 72.90625 
L 38.28125 72.90625 
L 38.28125 8.296875 
L 54.390625 8.296875 
L 54.390625 0 
L 12.40625 0 
z
" id="DejaVuSans-49"/>
      </defs>
      <g transform="translate(229.26117 392.598437)scale(0.1 -0.1)">
       <use xlink:href="#DejaVuSans-49"/>
      </g>
     </g>
    </g>
    <g id="xtick_3">
     <g id="line2d_3">
      <g>
       <use style="stroke:#000000;stroke-width:0.8;" x="357.95758" xlink:href="#m633506deef" y="378"/>
      </g>
     </g>
     <g id="text_3">
      <!-- 2 -->
      <defs>
       <path d="M 19.1875 8.296875 
L 53.609375 8.296875 
L 53.609375 0 
L 7.328125 0 
L 7.328125 8.296875 
Q 12.9375 14.109375 22.625 23.890625 
Q 32.328125 33.6875 34.8125 36.53125 
Q 39.546875 41.84375 41.421875 45.53125 
Q 43.3125 49.21875 43.3125 52.78125 
Q 43.3125 58.59375 39.234375 62.25 
Q 35.15625 65.921875 28.609375 65.921875 
Q 23.96875 65.921875 18.8125 64.3125 
Q 13.671875 62.703125 7.8125 59.421875 
L 7.8125 69.390625 
Q 13.765625 71.78125 18.9375 73 
Q 24.125 74.21875 28.421875 74.21875 
Q 39.75 74.21875 46.484375 68.546875 
Q 53.21875 62.890625 53.21875 53.421875 
Q 53.21875 48.921875 51.53125 44.890625 
Q 49.859375 40.875 45.40625 35.40625 
Q 44.1875 33.984375 37.640625 27.21875 
Q 31.109375 20.453125 19.1875 8.296875 
z
" id="DejaVuSans-50"/>
      </defs>
      <g transform="translate(354.77633 392.598437)scale(0.1 -0.1)">
       <use xlink:href="#DejaVuSans-50"/>
      </g>
     </g>
    </g>
    <g id="xtick_4">
     <g id="line2d_4">
      <g>
       <use style="stroke:#000000;stroke-width:0.8;" x="483.472739" xlink:href="#m633506deef" y="378"/>
      </g>
     </g>
     <g id="text_4">
      <!-- 3 -->
      <defs>
       <path d="M 40.578125 39.3125 
Q 47.65625 37.796875 51.625 33 
Q 55.609375 28.21875 55.609375 21.1875 
Q 55.609375 10.40625 48.1875 4.484375 
Q 40.765625 -1.421875 27.09375 -1.421875 
Q 22.515625 -1.421875 17.65625 -0.515625 
Q 12.796875 0.390625 7.625 2.203125 
L 7.625 11.71875 
Q 11.71875 9.328125 16.59375 8.109375 
Q 21.484375 6.890625 26.8125 6.890625 
Q 36.078125 6.890625 40.9375 10.546875 
Q 45.796875 14.203125 45.796875 21.1875 
Q 45.796875 27.640625 41.28125 31.265625 
Q 36.765625 34.90625 28.71875 34.90625 
L 20.21875 34.90625 
L 20.21875 43.015625 
L 29.109375 43.015625 
Q 36.375 43.015625 40.234375 45.921875 
Q 44.09375 48.828125 44.09375 54.296875 
Q 44.09375 59.90625 40.109375 62.90625 
Q 36.140625 65.921875 28.71875 65.921875 
Q 24.65625 65.921875 20.015625 65.03125 
Q 15.375 64.15625 9.8125 62.3125 
L 9.8125 71.09375 
Q 15.4375 72.65625 20.34375 73.4375 
Q 25.25 74.21875 29.59375 74.21875 
Q 40.828125 74.21875 47.359375 69.109375 
Q 53.90625 64.015625 53.90625 55.328125 
Q 53.90625 49.265625 50.4375 45.09375 
Q 46.96875 40.921875 40.578125 39.3125 
z
" id="DejaVuSans-51"/>
      </defs>
      <g transform="translate(480.291489 392.598437)scale(0.1 -0.1)">
       <use xlink:href="#DejaVuSans-51"/>
      </g>
     </g>
    </g>
    <g id="text_5">
     <!-- $l$ -->
     <defs>
      <path d="M 18.3125 75.984375 
L 27.296875 75.984375 
L 12.5 0 
L 3.515625 0 
z
" id="DejaVuSans-Oblique-108"/>
     </defs>
     <g transform="translate(291.98 416.154531)scale(0.23 -0.23)">
      <use transform="translate(0 0.015625)" xlink:href="#DejaVuSans-Oblique-108"/>
     </g>
    </g>
   </g>
   <g id="matplotlib.axis_2">
    <g id="ytick_1">
     <g id="line2d_5">
      <defs>
       <path d="M 0 0 
L -3.5 0 
" id="m045c53797b" style="stroke:#000000;stroke-width:0.8;"/>
      </defs>
      <g>
       <use style="stroke:#000000;stroke-width:0.8;" x="72" xlink:href="#m045c53797b" y="51.84"/>
      </g>
     </g>
     <g id="text_6">
      <!-- 0 -->
      <g transform="translate(58.6375 55.639219)scale(0.1 -0.1)">
       <use xlink:href="#DejaVuSans-48"/>
      </g>
     </g>
    </g>
    <g id="ytick_2">
     <g id="line2d_6">
      <g>
       <use style="stroke:#000000;stroke-width:0.8;" x="72" xlink:href="#m045c53797b" y="147.378547"/>
      </g>
     </g>
     <g id="text_7">
      <!-- −10 -->
      <defs>
       <path d="M 10.59375 35.5 
L 73.1875 35.5 
L 73.1875 27.203125 
L 10.59375 27.203125 
z
" id="DejaVuSans-8722"/>
      </defs>
      <g transform="translate(43.895313 151.177765)scale(0.1 -0.1)">
       <use xlink:href="#DejaVuSans-8722"/>
       <use x="83.789062" xlink:href="#DejaVuSans-49"/>
       <use x="147.412109" xlink:href="#DejaVuSans-48"/>
      </g>
     </g>
    </g>
    <g id="ytick_3">
     <g id="line2d_7">
      <g>
       <use style="stroke:#000000;stroke-width:0.8;" x="72" xlink:href="#m045c53797b" y="242.917093"/>
      </g>
     </g>
     <g id="text_8">
      <!-- −20 -->
      <g transform="translate(43.895313 246.716312)scale(0.1 -0.1)">
       <use xlink:href="#DejaVuSans-8722"/>
       <use x="83.789062" xlink:href="#DejaVuSans-50"/>
       <use x="147.412109" xlink:href="#DejaVuSans-48"/>
      </g>
     </g>
    </g>
    <g id="ytick_4">
     <g id="line2d_8">
      <g>
       <use style="stroke:#000000;stroke-width:0.8;" x="72" xlink:href="#m045c53797b" y="338.45564"/>
      </g>
     </g>
     <g id="text_9">
      <!-- −30 -->
      <g transform="translate(43.895313 342.254859)scale(0.1 -0.1)">
       <use xlink:href="#DejaVuSans-8722"/>
       <use x="83.789062" xlink:href="#DejaVuSans-51"/>
       <use x="147.412109" xlink:href="#DejaVuSans-48"/>
      </g>
     </g>
    </g>
    <g id="text_10">
     <!-- E -->
     <defs>
      <path d="M 9.8125 72.90625 
L 55.90625 72.90625 
L 55.90625 64.59375 
L 19.671875 64.59375 
L 19.671875 43.015625 
L 54.390625 43.015625 
L 54.390625 34.71875 
L 19.671875 34.71875 
L 19.671875 8.296875 
L 56.78125 8.296875 
L 56.78125 0 
L 9.8125 0 
z
" id="DejaVuSans-69"/>
     </defs>
     <g transform="translate(35.112031 222.186562)rotate(-90)scale(0.23 -0.23)">
      <use xlink:href="#DejaVuSans-69"/>
     </g>
    </g>
   </g>
   <g id="patch_3">
    <path d="M 72 378 
L 72 51.84 
" style="fill:none;stroke:#000000;stroke-linecap:square;stroke-linejoin:miter;stroke-width:0.8;"/>
   </g>
   <g id="patch_4">
    <path d="M 518.4 378 
L 518.4 51.84 
" style="fill:none;stroke:#000000;stroke-linecap:square;stroke-linejoin:miter;stroke-width:0.8;"/>
   </g>
   <g id="patch_5">
    <path d="M 72 378 
L 518.4 378 
" style="fill:none;stroke:#000000;stroke-linecap:square;stroke-linejoin:miter;stroke-width:0.8;"/>
   </g>
   <g id="patch_6">
    <path d="M 72 51.84 
L 518.4 51.84 
" style="fill:none;stroke:#000000;stroke-linecap:square;stroke-linejoin:miter;stroke-width:0.8;"/>
   </g>
   <g id="legend_1">
    <g id="patch_7">
     <path d="M 375.14 368.5 
L 505.1 368.5 
Q 508.9 368.5 508.9 364.7 
L 508.9 255.04625 
Q 508.9 251.24625 505.1 251.24625 
L 375.14 251.24625 
Q 371.34 251.24625 371.34 255.04625 
L 371.34 364.7 
Q 371.34 368.5 375.14 368.5 
z
" style="fill:#ffffff;opacity:0.8;stroke:#cccccc;stroke-linejoin:miter;"/>
    </g>
    <g id="PathCollection_5">
     <g>
      <use style="fill:#1f77b4;stroke:#1f77b4;stroke-width:1.5;" x="397.94" xlink:href="#ma4bba62c7f" y="268.295781"/>
     </g>
    </g>
    <g id="text_11">
     <!-- $V_{o}=$10 -->
     <defs>
      <path d="M 20.609375 0 
L 7.8125 72.90625 
L 17.484375 72.90625 
L 28.078125 10.203125 
L 63.484375 72.90625 
L 74.21875 72.90625 
L 32.078125 0 
z
" id="DejaVuSans-Oblique-86"/>
      <path d="M 25.390625 -1.421875 
Q 15.765625 -1.421875 10.171875 4.515625 
Q 4.59375 10.453125 4.59375 20.703125 
Q 4.59375 26.65625 6.515625 32.828125 
Q 8.453125 39.015625 11.53125 43.21875 
Q 16.359375 49.75 22.3125 52.875 
Q 28.265625 56 35.796875 56 
Q 45.125 56 50.859375 50.1875 
Q 56.59375 44.390625 56.59375 35.015625 
Q 56.59375 28.515625 54.6875 22.0625 
Q 52.78125 15.625 49.703125 11.375 
Q 44.921875 4.828125 38.96875 1.703125 
Q 33.015625 -1.421875 25.390625 -1.421875 
z
M 13.921875 21 
Q 13.921875 13.578125 17.015625 9.890625 
Q 20.125 6.203125 26.421875 6.203125 
Q 35.453125 6.203125 41.375 14.078125 
Q 47.3125 21.96875 47.3125 34.078125 
Q 47.3125 41.15625 44.140625 44.765625 
Q 40.96875 48.390625 34.8125 48.390625 
Q 29.734375 48.390625 25.78125 46.015625 
Q 21.828125 43.65625 18.703125 38.8125 
Q 16.40625 35.203125 15.15625 30.5625 
Q 13.921875 25.921875 13.921875 21 
z
" id="DejaVuSans-Oblique-111"/>
      <path d="M 10.59375 45.40625 
L 73.1875 45.40625 
L 73.1875 37.203125 
L 10.59375 37.203125 
z
M 10.59375 25.484375 
L 73.1875 25.484375 
L 73.1875 17.1875 
L 10.59375 17.1875 
z
" id="DejaVuSans-61"/>
     </defs>
     <g transform="translate(432.14 273.283281)scale(0.19 -0.19)">
      <use transform="translate(0 0.78125)" xlink:href="#DejaVuSans-Oblique-86"/>
      <use transform="translate(68.408203 -15.625)scale(0.7)" xlink:href="#DejaVuSans-Oblique-111"/>
      <use transform="translate(133.452148 0.78125)" xlink:href="#DejaVuSans-61"/>
      <use transform="translate(236.723633 0.78125)" xlink:href="#DejaVuSans-49"/>
      <use transform="translate(300.34668 0.78125)" xlink:href="#DejaVuSans-48"/>
     </g>
    </g>
    <g id="PathCollection_6">
     <g>
      <use style="fill:#ff7f0e;stroke:#ff7f0e;stroke-width:1.5;" x="397.94" xlink:href="#mb27b877c35" y="296.184219"/>
     </g>
    </g>
    <g id="text_12">
     <!-- $V_{o}=$20 -->
     <g transform="translate(432.14 301.171719)scale(0.19 -0.19)">
      <use transform="translate(0 0.78125)" xlink:href="#DejaVuSans-Oblique-86"/>
      <use transform="translate(68.408203 -15.625)scale(0.7)" xlink:href="#DejaVuSans-Oblique-111"/>
      <use transform="translate(133.452148 0.78125)" xlink:href="#DejaVuSans-61"/>
      <use transform="translate(236.723633 0.78125)" xlink:href="#DejaVuSans-50"/>
      <use transform="translate(300.34668 0.78125)" xlink:href="#DejaVuSans-48"/>
     </g>
    </g>
    <g id="PathCollection_7">
     <g>
      <use style="fill:#2ca02c;stroke:#2ca02c;stroke-width:1.5;" x="397.94" xlink:href="#m66aff5bc66" y="324.072656"/>
     </g>
    </g>
    <g id="text_13">
     <!-- $V_{o}=$30 -->
     <g transform="translate(432.14 329.060156)scale(0.19 -0.19)">
      <use transform="translate(0 0.78125)" xlink:href="#DejaVuSans-Oblique-86"/>
      <use transform="translate(68.408203 -15.625)scale(0.7)" xlink:href="#DejaVuSans-Oblique-111"/>
      <use transform="translate(133.452148 0.78125)" xlink:href="#DejaVuSans-61"/>
      <use transform="translate(236.723633 0.78125)" xlink:href="#DejaVuSans-51"/>
      <use transform="translate(300.34668 0.78125)" xlink:href="#DejaVuSans-48"/>
     </g>
    </g>
    <g id="PathCollection_8">
     <g>
      <use style="fill:#d62728;stroke:#d62728;stroke-width:1.5;" x="397.94" xlink:href="#m0cf0055988" y="351.961094"/>
     </g>
    </g>
    <g id="text_14">
     <!-- $V_{o}=$40 -->
     <defs>
      <path d="M 37.796875 64.3125 
L 12.890625 25.390625 
L 37.796875 25.390625 
z
M 35.203125 72.90625 
L 47.609375 72.90625 
L 47.609375 25.390625 
L 58.015625 25.390625 
L 58.015625 17.1875 
L 47.609375 17.1875 
L 47.609375 0 
L 37.796875 0 
L 37.796875 17.1875 
L 4.890625 17.1875 
L 4.890625 26.703125 
z
" id="DejaVuSans-52"/>
     </defs>
     <g transform="translate(432.14 356.948594)scale(0.19 -0.19)">
      <use transform="translate(0 0.78125)" xlink:href="#DejaVuSans-Oblique-86"/>
      <use transform="translate(68.408203 -15.625)scale(0.7)" xlink:href="#DejaVuSans-Oblique-111"/>
      <use transform="translate(133.452148 0.78125)" xlink:href="#DejaVuSans-61"/>
      <use transform="translate(236.723633 0.78125)" xlink:href="#DejaVuSans-52"/>
      <use transform="translate(300.34668 0.78125)" xlink:href="#DejaVuSans-48"/>
     </g>
    </g>
   </g>
  </g>
 </g>
 <defs>
  <clipPath id="p1a2499fc71">
   <rect height="326.16" width="446.4" x="72" y="51.84"/>
  </clipPath>
 </defs>
</svg>
